<svg id="text" xmlns="http://www.w3.org/2000/svg" viewBox="0 0 567.05 167.62"><defs><style>.cls-1{fill:#00a1e9;}.cls-2{fill:#7ecef4;}.cls-3{fill:#18902e;}.cls-4{fill:#0068b7;}.cls-5{fill:#929a9f;}</style></defs><polygon class="cls-1" points="130 60.29 85.24 41.73 85.24 11.46 130 30.02 130 60.29"/><polygon class="cls-1" points="40.48 70.68 85.24 89.24 85.24 119.5 40.48 100.94 40.48 70.68"/><polygon class="cls-2" points="130 70.68 85.24 89.24 85.24 119.5 130 100.94 130 70.68"/><polygon class="cls-2" points="40.48 60.29 85.24 41.73 85.24 11.46 40.48 30.02 40.48 60.29"/><polygon class="cls-3" points="130 99.84 40.48 60.29 40.48 30.02 130 69.57 130 99.84"/><path class="cls-4" d="M154.85,92.37,164.58,81c5.33,4.53,12.24,7.65,18.4,7.65,7.07,0,10.53-2.72,10.53-7.07,0-4.61-4.26-6.09-10.8-8.73L173,68.8c-7.76-3.08-15.12-9.32-15.12-20,0-12.15,11.09-21.84,26.69-21.84a35.06,35.06,0,0,1,24.1,9.6L200.09,47c-4.94-3.7-9.63-5.74-15.55-5.74S175,43.67,175,47.86c0,4.5,4.9,6.13,11.44,8.68L196,60.32c9.14,3.62,14.86,9.58,14.86,19.94,0,12.17-10.38,22.71-28.23,22.71A41.75,41.75,0,0,1,154.85,92.37Z"/><path class="cls-4" d="M216.6,28.34h16.94V58.28H234l22.33-29.94H274.9L252.24,57.58l26.83,44H260.49l-18.21-31L233.54,82v19.64H216.6Z"/><path class="cls-4" d="M304.05,75.48,281.48,28.34h18.11l6.69,16.83c2,5.49,4,10.57,6.1,16.25h.46c2.14-5.68,4.27-10.76,6.33-16.25l6.69-16.83h17.69L321,75.48v26.14H304.05Z"/><path class="cls-3" d="M351.66,28.34h25.73c16.49,0,29.78,5.76,29.78,23.57,0,17.23-13.44,24.85-29.32,24.85h-9.26v24.86H351.66ZM376.85,63.6c9.32,0,13.72-4.06,13.72-11.69s-5-10.42-14.18-10.42h-7.8V63.6Z"/><path class="cls-3" d="M425.35,28.34h20.27l23.53,73.28H451.22l-9.8-37.11c-2.08-7.33-4.08-16-6.08-23.64h-.46c-1.81,7.74-3.81,16.31-5.9,23.64l-9.84,37.11H401.83Zm-8,43h36.05V84.16H417.34Z"/><path class="cls-3" d="M487.07,75.48,464.5,28.34h18.11l6.69,16.83c2,5.49,4,10.57,6.1,16.25h.46c2.14-5.68,4.27-10.76,6.33-16.25l6.69-16.83h17.69L504,75.48v26.14H487.07Z"/><path class="cls-5" d="M163.84,141.82a4.71,4.71,0,0,0-2.3,1c-.77.53-2,1.46-3.89,2.85.77-2,1.56-3.94,2.37-5.65,1-2.15,1.85-3.81,2.49-4.94s1.42-2.5,2.35-4.06c1.33-2.28,1.44-2.71,1.44-3a2.5,2.5,0,0,0-.6-1.31l-.47-.61c-.91-1-1.32-.91-2.1-.16a11.16,11.16,0,0,0-1.1,1.25L160.66,129,158,132.45c-1,1.22-1.77,2.22-2.42,3s-1.25,1.44-1.8,2c-1.13,1.11-1.94,1.88-2.34,2.23-.67.57-.85.48-1,.29a.41.41,0,0,1-.12-.32,2,2,0,0,1,.3-.78c.23-.45.69-1.26,1.38-2.45s1.34-2.37,1.87-3.42q1-1.94,2.32-4.4c.86-1.61,1.47-2.83,1.82-3.62a5.38,5.38,0,0,0,.53-2,1.86,1.86,0,0,0-2.15-2.15c-2.13,0-5,1.26-8.7,3.86-1.54,1.07-2.63,1.86-3.34,2.42a7,7,0,0,0-1.61,1.68,5.41,5.41,0,0,0-.66,2l-.33,2.17h0a9.84,9.84,0,0,0-.12,1.09.7.7,0,0,0,.74.73c.19,0,.38-.06,1.27-.7.57-.4,1.08-.75,1.54-1.05,1.15-.75,2.27-1.56,3.33-2.4s1.94-1.55,2.67-2.14a18.7,18.7,0,0,1,1.78-1.32c.8-.5,1.08-.45,1.17-.29s-.47,1.41-4.06,7.18c-.77,1.27-2,3.64-3.71,7-.41.85-.67,1.43-.82,1.82a4.17,4.17,0,0,0-.26,1.55,2.37,2.37,0,0,0,.34,1.19,2.83,2.83,0,0,0,.83,1,2.12,2.12,0,0,0,2.58-.05c.31-.24.79-.67,1.48-1.32,1.53-1.47,3.08-3.08,4.59-4.78,1.27-1.42,2.46-2.82,3.56-4.17-.24.43-.49.86-.73,1.3-.78,1.41-1.46,2.71-2.06,3.88s-1.16,2.39-1.76,3.76c-1,2.19-1.7,4.06-2.18,5.54a12.47,12.47,0,0,0-.74,3.07,2.32,2.32,0,0,0,.68,1.82,1.63,1.63,0,0,0,1.12.46,2,2,0,0,0,.47-.07,2.39,2.39,0,0,0,1.21-1l1.47-2.11a18.46,18.46,0,0,1,1.9-2.31l3-3.08c.93-1,1.62-1.69,2.08-2.19a11.25,11.25,0,0,0,1.14-1.43,2.43,2.43,0,0,0,.49-1.28A.81.81,0,0,0,163.84,141.82Z"/><path class="cls-5" d="M176,140.51a3.58,3.58,0,0,1-.48.29.82.82,0,0,1-.39.11,12.31,12.31,0,0,0,1-2.27,8.35,8.35,0,0,0,.43-2.39,2.55,2.55,0,0,0-.35-1.54,1.5,1.5,0,0,0-.6-.46,1.33,1.33,0,0,0,.15-.6,1.28,1.28,0,0,0-.75-1.17,5.08,5.08,0,0,0-4.48.5,12.56,12.56,0,0,0-2.8,2.11,12.71,12.71,0,0,0-2.13,2.81,6.16,6.16,0,0,0-.85,2.87,7.1,7.1,0,0,0,.56,2.85,5.17,5.17,0,0,0,1.5,2.06,3.43,3.43,0,0,0,2.19.79c1.35,0,2.82-.93,4.47-2.85a4.48,4.48,0,0,0,2.14-.36,10.2,10.2,0,0,0,2.08-1.56l.16-.14v-2.41l-.77.57C176.56,140.13,176.21,140.39,176,140.51Zm-4.65,1.38c-1.32.94-1.89,1.08-2.11,1.08-1.24,0-1.24-.5-1.24-.73s.07-.46.44-2.12a3.79,3.79,0,0,1,.91-1.37,12.78,12.78,0,0,1,1.79-1.46l1.07-.71a12.18,12.18,0,0,0-.57,1.26,6.85,6.85,0,0,0-.52,2.56A5.41,5.41,0,0,0,171.39,141.89Z"/><path class="cls-5" d="M191.25,141.58A2.52,2.52,0,0,1,190,142c-.14,0-.29,0-.29-.49a3.29,3.29,0,0,1,.35-1.13,9.27,9.27,0,0,1,.87-1.55c.65-.93,1.21-1.74,1.67-2.42s.8-1.17,1-1.43a3.05,3.05,0,0,0,.35-.72,2.38,2.38,0,0,0,.1-.78,2.93,2.93,0,0,0-.22-1.37,1.09,1.09,0,0,0-1-.52,2,2,0,0,0-1.28.56c-.34.29-1,.92-1.91,1.92-.42.45-1,1.1-1.58,1.92a12.63,12.63,0,0,1-1.62,1.81l-2.22,1.93c-.84.74-1.4,1.21-1.73,1.45s-.48.29-.54.27-.06-.06-.06-.31a5.27,5.27,0,0,1,.29-1.38,26.66,26.66,0,0,0,2.75-2.42,15.09,15.09,0,0,0,1.83-2.21,2.93,2.93,0,0,0,.62-1.46c0-.53-.62-.71-.88-.78a4.43,4.43,0,0,0-1.27-.18,3.41,3.41,0,0,0-1.37.2,2.59,2.59,0,0,0-.92.73l-.93,1.09c-.64.73-1.16,1.36-1.59,1.92a12,12,0,0,0-1.08,1.62,5.77,5.77,0,0,0-.57,1.42,6.59,6.59,0,0,0-.15,1.45,7,7,0,0,0,.35,2.28,4.28,4.28,0,0,0,1,1.77c1.09,1.07,2.4,1.08,4.28-.93.49-.53,1.1-1.24,1.81-2.12h0a6.18,6.18,0,0,0-.49,2.08c0,2,1.28,2.33,2,2.33a3.3,3.3,0,0,0,1.69-.53,14,14,0,0,0,1.87-1.42c.7-.61,1.77-1.59,3.23-2.93l.15-.14v-2.44l-.77.61C192.63,140.62,191.79,141.24,191.25,141.58Z"/><path class="cls-5" d="M203.05,141.93c-.6,0-.6-.21-.6-.4a4.09,4.09,0,0,1,.61-1.65,10.83,10.83,0,0,1,1.58-2.2,16.06,16.06,0,0,0,1.22-1.37,1.93,1.93,0,0,0,.44-1.13,4.34,4.34,0,0,0-.23-1.38,1.7,1.7,0,0,0-.76-1.06,1.76,1.76,0,0,0-.75-.12,36.14,36.14,0,0,0-4,.45,1.64,1.64,0,0,0,.18-.66.79.79,0,0,0-.85-.83,1.62,1.62,0,0,0-.68.16,4.8,4.8,0,0,0-1.66,1.27,10.47,10.47,0,0,0-1.44,2,4.12,4.12,0,0,0-.62,1.92,1.73,1.73,0,0,0,.39,1.21,1.86,1.86,0,0,0,.51.39c-.3.44-.7,1-1.18,1.52l-.11.13v2.41l.78-.67a14,14,0,0,0,3.36-4.12l2.17-.39c-.36.47-.69.94-1,1.41a13.19,13.19,0,0,0-1.24,2.31,5.29,5.29,0,0,0-.44,2,3.94,3.94,0,0,0,.61,2.36,2,2,0,0,0,1.68.91,3.32,3.32,0,0,0,1.78-.63,12.81,12.81,0,0,0,1.93-1.53c.7-.64,1.56-1.5,2.57-2.56l.13-.14V139.1l-.78.63C204.37,141.65,203.41,141.93,203.05,141.93Z"/><path class="cls-5" d="M246.07,126.18a6.36,6.36,0,0,0-1.34-2.27c-1.57-1.74-4.38-2.62-8.35-2.62a35.47,35.47,0,0,0-11.65,2.36l-.15,0-.09.15c-.78,1.26-1.47,2.48-2.05,3.61-.92,1.78-.92,1.89-.92,2a.75.75,0,0,0,.33.62.91.91,0,0,0,.53.18l.18,0c.35-.13.92-.37,1.73-.7s1.69-.67,2.7-1a31.71,31.71,0,0,1,3.61-1,24.65,24.65,0,0,1,3-.48l-5,7.5a10.57,10.57,0,0,0-3.9,1.6,3.2,3.2,0,0,0-1.51,2.52,2.06,2.06,0,0,0,.61,1.38,3.68,3.68,0,0,0,1,.78c-1,1.75-1.71,3.2-2.21,4.29a7.71,7.71,0,0,0-.85,2.79A2.65,2.65,0,0,0,222,149a1.11,1.11,0,0,0,1.12.61,1.35,1.35,0,0,0,.84-.34,3.3,3.3,0,0,0,.56-.61c.15-.2.42-.6.84-1.22l.15-.22c.34-.51.62-.92.83-1.25a2.12,2.12,0,0,0,.34-1.23,1.42,1.42,0,0,0-.18-.64l1.38-2.53c1.12.13,1.85.19,2.25.19a22.56,22.56,0,0,0,6.53-.9,16,16,0,0,0,5.23-2.64,12.22,12.22,0,0,0,3.46-4.11,11.59,11.59,0,0,0,1.21-5.28A8.2,8.2,0,0,0,246.07,126.18Zm-11.46,8.4a.73.73,0,0,0-.82-.75h0l-1.44.16,2.7-4.23a5.46,5.46,0,0,0,1.1-2.8v0a33.55,33.55,0,0,1,4.09.25,5.82,5.82,0,0,1,2.57.85,1.73,1.73,0,0,1,.77,1.51,4.77,4.77,0,0,1-.59,2,8.36,8.36,0,0,1-1.92,2.45,11,11,0,0,1-3.64,2.07,16.06,16.06,0,0,1-5.48.84l-.89,0-.48,0,.55-.93,2.62-.5C234.5,135.24,234.61,134.82,234.61,134.58Z"/><path class="cls-5" d="M257.72,142.14c-.49,0-.79-.15-.79-.9a2.14,2.14,0,0,1,.29-1.16c.24-.38.67-1,1.24-1.77.88-1.18,1-1.65,1-1.94a1.87,1.87,0,0,0-.15-.69c-.07-.2-.18-.45-.32-.77-.05-.1-.09-.2-.13-.3a5.52,5.52,0,0,0,.52-.24,1,1,0,0,0,.49-.9,2.09,2.09,0,0,0-.24-.83,3,3,0,0,0-.63-.9,1.48,1.48,0,0,0-1.06-.46,11,11,0,0,0-4.31,1.29,23.31,23.31,0,0,0-5.6,3.89h0a15.92,15.92,0,0,0-1.59,1.67,3.87,3.87,0,0,0-.73,1.36,5.58,5.58,0,0,0-.19,1.59,6.49,6.49,0,0,0,.51,2.52,7.35,7.35,0,0,0,1.17,1.95,1.94,1.94,0,0,0,1.38.87,4,4,0,0,0,2.51-1.4c.62-.6,1.47-1.49,2.54-2.64a8.76,8.76,0,0,0-.38,2.27,3,3,0,0,0,.39,1.66,1.59,1.59,0,0,0,1.43.69c1.53,0,3.78-1.71,7.08-5.38l.12-.14v-2.37l-.79.7C259.3,141.73,258.23,142.14,257.72,142.14Zm-8.65.44s-.07,0-.14-.12a1.81,1.81,0,0,1-.14-.76c0-.93.62-1.87,1.86-2.8a34.37,34.37,0,0,1,5.13-2.92c-1,1.41-2,2.58-2.77,3.5a14,14,0,0,1-3.43,2.89A1.82,1.82,0,0,1,249.07,142.58Z"/><path class="cls-5" d="M275.61,141.37c-.52.47-1.19,1.09-2,1.87l-1.18,1.13c.32-.56.64-1.09.95-1.59.81-1.29,1.63-2.55,2.44-3.74s1.39-2.08,1.69-2.59a3,3,0,0,0,.19-3,1.18,1.18,0,0,0-1.18-.63,1.4,1.4,0,0,0-.84.45,9,9,0,0,0-.82.93c-.3.38-.64.79-1,1.24s-.86.94-1.43,1.51a30.77,30.77,0,0,1-4.1,3.5c-1.7,1.16-2.13,1.23-2.21,1.21a1,1,0,0,1,.12-.37l.32-.9a37.4,37.4,0,0,0,3-2.82,16.94,16.94,0,0,0,1.66-2.05,2.77,2.77,0,0,0,.59-1.39,2,2,0,0,0-.6-1.4,1.79,1.79,0,0,0-1.33-.68,2.67,2.67,0,0,0-1.4.7,16.63,16.63,0,0,0-1.9,1.76,26.74,26.74,0,0,0-2.22,2.73,13.69,13.69,0,0,0-1.17,2,5,5,0,0,0-.36,2,7.42,7.42,0,0,0,.84,3.12c.64,1.32,1.26,1.93,2,1.93.45,0,1.26-.25,3.47-2.18l1-.85a81.78,81.78,0,0,0-4.44,7.94,2.71,2.71,0,0,0-.25,1.16,4.18,4.18,0,0,0,.34,1.54c.11.27.43,1.07,1.14,1.07a1.12,1.12,0,0,0,.8-.47c.18-.21.42-.51.7-.91s.55-.77.88-1.2l.5-.65.8-1c.72-1,1.77-2.24,3.13-3.85s2.88-3.33,4.53-5.1l.12-.14v-2.41l-.77.61C276.79,140.36,276.14,140.9,275.61,141.37Z"/><path class="cls-5" d="M298.2,141.67a1.84,1.84,0,0,1-1,.47.66.66,0,0,1-.47-.18.57.57,0,0,1-.18-.46,2.2,2.2,0,0,1,.49-1.35c.38-.52,1-1.21,1.74-2.06,1.08-1.21,1.3-1.66,1.3-2a4.24,4.24,0,0,0-.43-1.63c-.13-.3-.51-1.18-1.22-1.18-.24,0-.54.1-1.37.79q-.8.67-1.86,1.65l-2.89,2.64c-.34.31-.69.64-1.07,1,0-.06.09-.13.14-.2a24.76,24.76,0,0,0,1.65-2.69,4.15,4.15,0,0,0,.62-1.69,2,2,0,0,0-.48-1.35c-.8-.92-2.14-.74-3.8.53a32.68,32.68,0,0,0-2.88,2.59c-1,1-2,2-2.82,2.84a14.36,14.36,0,0,1-1.17,1.08,2.8,2.8,0,0,1,.42-.84,6.38,6.38,0,0,1,1-1.23,14.65,14.65,0,0,0,1.78-1.9,3,3,0,0,0,.77-1.57,1.13,1.13,0,0,0-.61-1,2.2,2.2,0,0,0-1.15-.28,2.82,2.82,0,0,0-2,.91,18.55,18.55,0,0,0-2.11,2.66,17.35,17.35,0,0,0-1.21,2.14,5.23,5.23,0,0,0-.43,2.18,6.73,6.73,0,0,0,.63,3c.48,1,1,1.46,1.67,1.46a1.38,1.38,0,0,0,1-.53,16.76,16.76,0,0,0,1.15-1.52,19.23,19.23,0,0,1,1.35-1.75c1.53-1.7,2.47-2.72,3-3.21a2.69,2.69,0,0,1,.72-.58.16.16,0,0,1,0,.06c-.89,1.49-1.59,2.74-2.08,3.71a5.23,5.23,0,0,0-.78,2.21c0,1.67,1,1.85,1.45,1.85a3.28,3.28,0,0,0,2.29-1.31l1.47-1.69c.6-.69,1.4-1.52,2.37-2.47.34-.33.7-.67,1.08-1-.45.74-.81,1.38-1.09,1.92a12,12,0,0,0-.72,1.61,4.53,4.53,0,0,0-.25,1.43,2.09,2.09,0,0,0,.51,1.41,1.75,1.75,0,0,0,1.33.6,3.94,3.94,0,0,0,1.86-.61,16.46,16.46,0,0,0,2.36-1.71c.88-.73,1.85-1.6,3-2.65l.15-.14V139l-.79.7C299.46,140.65,298.68,141.31,298.2,141.67Z"/><path class="cls-5" d="M311.1,141.65a9.62,9.62,0,0,1-1.86,1.08c-1.06.47-2.16.61-2.75-.06a2.07,2.07,0,0,1-.42-1.4v-.14a27.72,27.72,0,0,0,4.2-2.12,10.8,10.8,0,0,0,2.79-2.42,4.39,4.39,0,0,0,1-2.62,1.88,1.88,0,0,0-.7-1.58c-.91-.71-2.52-.65-4.36.16a11.94,11.94,0,0,0-2.92,1.89,14.26,14.26,0,0,0-3.08,3.48,7.47,7.47,0,0,0-1,3.78,6.16,6.16,0,0,0,1.06,3.8,3.58,3.58,0,0,0,3,1.47,6.76,6.76,0,0,0,4-1.44,23.37,23.37,0,0,0,4-3.95l.11-.13v-2.34l-.78.67C312.49,140.58,311.72,141.2,311.1,141.65Zm-4.6-2.88a4.1,4.1,0,0,1,.48-.93,7.24,7.24,0,0,1,1.31-1.53,8.28,8.28,0,0,1,1.44-1.06,3.09,3.09,0,0,1,.75-.34,3.19,3.19,0,0,1-.48,1,7.72,7.72,0,0,1-1.66,1.73A9.31,9.31,0,0,1,306.5,138.77Z"/><path class="cls-5" d="M326.7,141.68a2.29,2.29,0,0,1-1.15.49c-.1,0-.17,0-.17-.32s.41-1.7,3.14-4.75c.64-.67.93-1.15.93-1.57a5.39,5.39,0,0,0-.32-1.81c-.18-.53-.47-1.14-1-1.14a3.46,3.46,0,0,0-1.9.77,26.81,26.81,0,0,0-3.21,2.48,30.93,30.93,0,0,0-2.43,2.46l-1.66,1.88c-.16.18-.28.3-.37.39.07-.32.51-1.26,2.8-3.8.3-.33.51-.55.6-.67a2.52,2.52,0,0,0,.3-.45,1.28,1.28,0,0,0,.17-.61,1.15,1.15,0,0,0-.6-1.05,2.38,2.38,0,0,0-1.19-.27,3.1,3.1,0,0,0-2.12,1.06,18.72,18.72,0,0,0-2.28,3,10.27,10.27,0,0,0-1,1.72,4.79,4.79,0,0,0-.27,1.78,8.09,8.09,0,0,0,.54,3.07c.15.39.62,1.55,1.54,1.55a1.58,1.58,0,0,0,1.1-.52,16.66,16.66,0,0,0,1.26-1.54c.54-.73,1.06-1.4,1.54-2a21.36,21.36,0,0,1,1.73-1.86q.38-.37.72-.69l-.35.61c-.45.78-.79,1.38-1,1.8a7.86,7.86,0,0,0-.55,1.27,4.33,4.33,0,0,0-.21,1.32c0,2.16,1.25,2.48,2,2.48a4.46,4.46,0,0,0,2.61-1.26c.95-.77,2.32-2,4.09-3.78l.14-.14v-2.47l-.77.61C328.15,140.65,327.25,141.32,326.7,141.68Z"/><path class="cls-5" d="M342.58,130.24l-.35,0c.21-.29.46-.62.75-1,.83-1,.9-1.3.9-1.51,0-.43-.26-.94-1.5-.94a3.1,3.1,0,0,0-2.14.86A9.85,9.85,0,0,0,338.5,130H338a11.6,11.6,0,0,0-2.33.19,3.47,3.47,0,0,0-1.55.79,6.84,6.84,0,0,0-1.25,1.65,4.36,4.36,0,0,0-.83,2.09.56.56,0,0,0,.55.59,1.44,1.44,0,0,0,.42-.09l.39-.12a6.74,6.74,0,0,1,1.51-.13h.22a25.65,25.65,0,0,1-4.15,4.94l-.17.15v2.59l.8-.74.34-.3q-.24.65-.36,1.08a6.05,6.05,0,0,0-.31,1.77,3.09,3.09,0,0,0,.61,2,2.11,2.11,0,0,0,1.72.83c1.76,0,4.3-1.83,7.77-5.6l.12-.14V139.1l-.77.63c-1.26,1-2.27,1.8-3,2.29a3.15,3.15,0,0,1-1.59.67c-.22,0-.55,0-.55-.8a5.92,5.92,0,0,1,.34-1.86,17.51,17.51,0,0,1,1-2.26c.41-.76.92-1.64,1.52-2.62l2.44.18.15-.2a28,28,0,0,0,2.7-4.1l.33-.6-.68-.09Z"/><path class="cls-5" d="M372.24,132.66a19,19,0,0,0,4.56-1.91,8.8,8.8,0,0,0,2.67-2.39,4.83,4.83,0,0,0,.89-2.74,4.21,4.21,0,0,0-2-3.54,9.6,9.6,0,0,0-5.56-1.34,24.74,24.74,0,0,0-3.49.28c-1.29.19-2.58.42-3.83.69s-2.41.57-3.46.87a15.56,15.56,0,0,0-2.07.68,8.53,8.53,0,0,0-2.9,2.88c-1.42,2-1.58,2.8-1.58,3.22a1.08,1.08,0,0,0,1.16,1.16,16.12,16.12,0,0,0,3.89-.87c2.83-.86,3.13-1.14,3.13-1.6a.81.81,0,0,0-.52-.69l.31-.11a25.26,25.26,0,0,1,2.52-.74c.95-.23,2-.44,3.17-.62,3.22-.51,5.43-.3,6.58.24a1.39,1.39,0,0,1,.93,1.37,1.84,1.84,0,0,1-.94,1.47,10,10,0,0,1-3.19,1.37,40.74,40.74,0,0,1-4.38.87l1.36-1.54c.63-.71,1.08-1.22,1.36-1.55s.53-.68.53-.9a.58.58,0,0,0-.65-.57l-.37,0a7.09,7.09,0,0,0-3.69,1.54,23.31,23.31,0,0,0-3.59,3.67l-2.8.35c-.79.1-1.33.19-1.63.26a2.13,2.13,0,0,0-.86.44,1.32,1.32,0,0,0-.39,1,1.67,1.67,0,0,0,.86,1.48,4,4,0,0,0,1.49.44,31.15,31.15,0,0,0-2.49,3.63,6.56,6.56,0,0,0-1,3.21,3.76,3.76,0,0,0,1.79,3.27,8.4,8.4,0,0,0,4.67,1.13,14.78,14.78,0,0,0,3.89-.59,21.9,21.9,0,0,0,4.13-1.6,12.48,12.48,0,0,0,3.31-2.39,4.27,4.27,0,0,0,1.36-2.95c0-1.66-1.09-3-3.24-3.86a19.32,19.32,0,0,0-2-.66c-.75-.21-1.58-.4-2.44-.56-.63-.13-1.34-.23-2.1-.32l.24-.28A40.91,40.91,0,0,0,372.24,132.66Zm-9.93,5.51,1.56-1.84c1.61.21,3,.45,4.16.7a9.54,9.54,0,0,1,2.63.86c.61.35.68.69.68.91,0,.46-.35.95-1,1.46a9.8,9.8,0,0,1-2.9,1.41c-2.34.73-4.59.73-5.63-.06a1.52,1.52,0,0,1-.74-1.21,1.68,1.68,0,0,1,.26-.86A11.19,11.19,0,0,1,362.31,138.17Z"/><path class="cls-5" d="M385.63,141.93c-.6,0-.6-.21-.6-.4a4.09,4.09,0,0,1,.61-1.65,10.83,10.83,0,0,1,1.58-2.2,16.06,16.06,0,0,0,1.22-1.37,1.93,1.93,0,0,0,.44-1.13,4.34,4.34,0,0,0-.23-1.38,1.7,1.7,0,0,0-.76-1.06,1.76,1.76,0,0,0-.75-.12,36.14,36.14,0,0,0-4,.45,1.64,1.64,0,0,0,.18-.66.79.79,0,0,0-.85-.83,1.54,1.54,0,0,0-.67.16,4.73,4.73,0,0,0-1.67,1.27,10.47,10.47,0,0,0-1.44,2,4.12,4.12,0,0,0-.62,1.92,1.65,1.65,0,0,0,.9,1.6c-.3.44-.7,1-1.18,1.52l-.11.13v2.41l.79-.67a14.08,14.08,0,0,0,3.35-4.12l2.17-.39c-.36.47-.69.94-1,1.41a13.19,13.19,0,0,0-1.24,2.31,5.29,5.29,0,0,0-.44,2,3.94,3.94,0,0,0,.61,2.36,2,2,0,0,0,1.68.91,3.38,3.38,0,0,0,1.79-.63,13.3,13.3,0,0,0,1.92-1.53c.7-.64,1.56-1.5,2.57-2.56l.13-.14V139.1l-.78.63C387,141.65,386,141.93,385.63,141.93Z"/><path class="cls-5" d="M401.38,127.75a1.8,1.8,0,0,0-1.26-.47,2.57,2.57,0,0,0-2,1.19,3.5,3.5,0,0,0-.88,2.11,1.6,1.6,0,0,0,.59,1.26,1.8,1.8,0,0,0,1.19.46,2.57,2.57,0,0,0,2-1.14,3.44,3.44,0,0,0,.86-2.06A1.78,1.78,0,0,0,401.38,127.75Z"/><path class="cls-5" d="M397.32,141.79c-1.15.7-2.12.72-2.66.24a.92.92,0,0,1-.34-.76,1.62,1.62,0,0,1,.39-1.09,27.2,27.2,0,0,1,2.06-2.13,8.32,8.32,0,0,0,1.4-1.91A4.7,4.7,0,0,0,399,134c0-.4-.15-1.35-1.61-1.35-1.65,0-3.36,1.42-5.24,4.34q-.56.91-.78,1.38a6.15,6.15,0,0,0-.39,1.19,6.67,6.67,0,0,0-.16,1.49,8.73,8.73,0,0,0,.79,3.69,2.87,2.87,0,0,0,2.7,1.88,5.12,5.12,0,0,0,2.94-1.28,19.32,19.32,0,0,0,3.46-3.59l.1-.13v-2.54l-.79.66A22.76,22.76,0,0,1,397.32,141.79Z"/><path class="cls-5" d="M416.14,133.51c.91-1.49,1.85-3,2.79-4.59a8.4,8.4,0,0,0,1.48-3.56,1.78,1.78,0,0,0-.46-1.21,1.44,1.44,0,0,0-1.12-.57c-.42,0-.89.38-1.62,1.32a30.91,30.91,0,0,0-2.2,3.52c-.76,1.37-1.58,3-2.43,4.69a2.41,2.41,0,0,0-1.67-.77,8.39,8.39,0,0,0-3.57,1.26,16.65,16.65,0,0,0-4.09,3.13,5.84,5.84,0,0,0-1.88,4,7.92,7.92,0,0,0,.45,2.61,7.39,7.39,0,0,0,1.11,2.12,2,2,0,0,0,1.46,1,2.59,2.59,0,0,0,1.4-.75,24.17,24.17,0,0,0,2.15-2c.56-.57,1.17-1.22,1.82-1.93a18.52,18.52,0,0,0-.16,2.29,4.46,4.46,0,0,0,.45,2.22,1.78,1.78,0,0,0,1.66.91c1.63,0,3.77-1.76,6.57-5.37l.1-.13V139l-.8.76a33.19,33.19,0,0,1-2.77,2.43,2.46,2.46,0,0,1-1.35.64c-.18,0-.6,0-.6-1.2a9.48,9.48,0,0,1,.94-3.81A40.45,40.45,0,0,1,416.14,133.51Zm-5,2.91c-.06.14-.13.28-.2.41a4.54,4.54,0,0,1-.78,1.06c-.33.34-.85.82-1.55,1.41l-1.41,1.2c-.15.12-.47.41-1,.84a11.13,11.13,0,0,1-1,.84.64.64,0,0,1-.33.14.14.14,0,0,1-.11,0,.3.3,0,0,1-.07-.21,5.39,5.39,0,0,1,.3-1.4,2.85,2.85,0,0,1,.6-1.2,15.36,15.36,0,0,1,2.59-1.62A25.85,25.85,0,0,1,411.18,136.42Z"/><path class="cls-5" d="M433,138.3a7.46,7.46,0,0,0,.71-2.66,1.41,1.41,0,0,0-.37-1c-.62-.61-1.68-.48-2.74.58a30.69,30.69,0,0,0-2.08,2.38,18.87,18.87,0,0,1-1.93,2.17,27.77,27.77,0,0,1-2.43,2.07,2.27,2.27,0,0,1-1.21.5.3.3,0,0,1-.26-.12.78.78,0,0,1-.14-.5,3.52,3.52,0,0,1,.87-2,11.62,11.62,0,0,1,2.41-2.31,15.86,15.86,0,0,1,3-1.77c1.93-.86,2.87-1.77,2.87-2.8,0-.4-.16-1.35-1.67-1.35-1.16,0-2.71.62-4.72,1.88a21.09,21.09,0,0,0-2.73,1.95,14.72,14.72,0,0,0-1.93,2,8,8,0,0,0-1.14,1.86,4.56,4.56,0,0,0-.38,1.74,7.2,7.2,0,0,0,.85,3.34c.62,1.18,1.35,1.77,2.17,1.77a4.45,4.45,0,0,0,2.21-.71,15.21,15.21,0,0,0,2.46-1.89c.39-.35.79-.74,1.24-1.17-.44,1-1,2-1.57,3.28l-1.31,1.09c-.69.57-1.25,1-1.67,1.43a18,18,0,0,0-1.35,1.38A13.91,13.91,0,0,0,420.9,151a7.12,7.12,0,0,0-1.44,3.68,1,1,0,0,0,1,1.16c.85,0,2-.75,3.52-2.37a35.63,35.63,0,0,0,4.77-6.74l6.28-5.16v-2.37L431.32,142C432.07,140.37,432.63,139.14,433,138.3Z"/><path class="cls-5" d="M447.17,139.78c-.94.8-1.7,1.42-2.33,1.87a9.55,9.55,0,0,1-1.85,1.08c-1.07.47-2.16.61-2.75-.06a2.07,2.07,0,0,1-.43-1.4v-.14A27.72,27.72,0,0,0,444,139a10.8,10.8,0,0,0,2.79-2.42,4.32,4.32,0,0,0,1-2.62,1.9,1.9,0,0,0-.69-1.58c-.92-.71-2.53-.65-4.36.16a12,12,0,0,0-2.93,1.89,14.26,14.26,0,0,0-3.08,3.48,7.57,7.57,0,0,0-1,3.78,6.23,6.23,0,0,0,1.06,3.8,3.58,3.58,0,0,0,3,1.47,6.72,6.72,0,0,0,4-1.44,23.75,23.75,0,0,0,4-3.95l.11-.13v-2.34Zm-6.93-1a5.11,5.11,0,0,1,.48-.93,7.87,7.87,0,0,1,1.31-1.53,8.68,8.68,0,0,1,1.44-1.06,3.27,3.27,0,0,1,.76-.34,3.49,3.49,0,0,1-.48,1,8,8,0,0,1-1.66,1.73A9.1,9.1,0,0,1,440.24,138.77Z"/></svg>